<?xml version="1.0"?>
<svg xmlns="http://www.w3.org/2000/svg" xmlns:xlink="http://www.w3.org/1999/xlink" xmlns:svgjs="http://svgjs.com/svgjs" version="1.1" width="512" height="512" x="0" y="0" viewBox="0 0 512 512" style="enable-background:new 0 0 512 512" xml:space="preserve" class=""><g><g xmlns="http://www.w3.org/2000/svg"><path d="m496 432h-64v-16h48a8 8 0 0 0 8-8v-32a231.974 231.974 0 0 0 -224-231.85v-8.15h32a8 8 0 0 0 8-8v-32a8 8 0 0 0 -8-8h-80a8 8 0 0 0 -8 8v32a8 8 0 0 0 8 8h32v8.15a231.974 231.974 0 0 0 -224 231.85v32a8 8 0 0 0 8 8h48v16h-64a8 8 0 0 0 -8 8v48a8 8 0 0 0 8 8h480a8 8 0 0 0 8-8v-48a8 8 0 0 0 -8-8zm-272-312v-16h64v16zm-184 280v-24a216.007 216.007 0 0 1 368.74-152.74 214.619 214.619 0 0 1 63.26 152.74v24zm376 16v16h-320v-16zm72 64h-464v-32h464z" fill="#333366" data-original="#000000" style="" class=""/><path d="m96 456h-56a8 8 0 0 0 0 16h56a8 8 0 0 0 0-16z" fill="#333366" data-original="#000000" style="" class=""/><path d="m128 456h-8a8 8 0 0 0 0 16h8a8 8 0 0 0 0-16z" fill="#333366" data-original="#000000" style="" class=""/><path d="m256 72a8 8 0 0 0 8-8v-40a8 8 0 0 0 -16 0v40a8 8 0 0 0 8 8z" fill="#333366" data-original="#000000" style="" class=""/><path d="m144 120h40a8 8 0 0 0 0-16h-40a8 8 0 0 0 0 16z" fill="#333366" data-original="#000000" style="" class=""/><path d="m320 112a8 8 0 0 0 8 8h40a8 8 0 0 0 0-16h-40a8 8 0 0 0 -8 8z" fill="#333366" data-original="#000000" style="" class=""/><path d="m186.611 76.922a8 8 0 0 0 11.063-11.559l-23.285-22.285a8 8 0 0 0 -11.063 11.559z" fill="#333366" data-original="#000000" style="" class=""/><path d="m312.858 79.143a7.977 7.977 0 0 0 5.531-2.221l23.285-22.285a8 8 0 1 0 -11.063-11.559l-23.285 22.285a8 8 0 0 0 5.532 13.78z" fill="#333366" data-original="#000000" style="" class=""/></g></g></svg>
