<?xml version="1.0"?>
<svg xmlns="http://www.w3.org/2000/svg" xmlns:xlink="http://www.w3.org/1999/xlink" xmlns:svgjs="http://svgjs.com/svgjs" version="1.1" width="512" height="512" x="0" y="0" viewBox="0 0 64 64" style="enable-background:new 0 0 512 512" xml:space="preserve"><g><g xmlns="http://www.w3.org/2000/svg" id="Taxi_Driver-Customer-Driver-Taxi-Transport" data-name="Taxi Driver-Customer-Driver-Taxi-Transport"><path d="M23.85,26.51,19,24.35V22.92A8.06,8.06,0,0,0,22.74,18H23a3,3,0,0,0,0-6v-.84l1.95-5.84a1.028,1.028,0,0,0-.24-1.03l-2-2A1.033,1.033,0,0,0,22,2H8a1.033,1.033,0,0,0-.71.29l-2,2a1.028,1.028,0,0,0-.24,1.03L7,11.16V12a3,3,0,0,0,0,6h.26A8.06,8.06,0,0,0,11,22.92v1.43L6.15,26.51A7,7,0,0,0,2,32.9V48a4,4,0,0,0,4,4v9a1,1,0,0,0,1,1H23a1,1,0,0,0,1-1V52a4,4,0,0,0,4-4V32.9A7,7,0,0,0,23.85,26.51ZM23,14a1,1,0,0,1,0,2ZM7,16a1,1,0,0,1,0-2ZM7.14,5.27,8.41,4H21.59l1.27,1.27L22.61,6H7.39ZM8.05,8h13.9l-.67,2H8.72Zm12.78,4A3.014,3.014,0,0,1,18,14H12a3.014,3.014,0,0,1-2.83-2ZM9,16V14.97A4.924,4.924,0,0,0,12,16h6a4.924,4.924,0,0,0,3-1.03V16A6,6,0,0,1,9,16Zm4,8.28v-.54a7.822,7.822,0,0,0,4,0v.54l-2,.67Zm.15,2.16-1.14,1.13-1-1.04,1.04-.46Zm4.8-.37,1.04.46-1,1.04-1.14-1.13ZM6,50a2.006,2.006,0,0,1-2-2H6ZM22,60H16V52H14v8H8V49H22Zm2-10V48h2A2.006,2.006,0,0,1,24,50Zm2-4H24V32H22V47H8V32H6V46H4V32.9a5.009,5.009,0,0,1,2.97-4.57l2.1-.93,2.21,2.29a.97.97,0,0,0,.71.31H12a1.052,1.052,0,0,0,.71-.29L15,27.41l2.29,2.3A1.052,1.052,0,0,0,18,30h.01a.97.97,0,0,0,.71-.31l2.21-2.29,2.1.93A5.009,5.009,0,0,1,26,32.9Z" fill="#333366" data-original="#000000" style=""/><rect x="36" y="52" width="10" height="2" fill="#333366" data-original="#000000" style=""/><rect x="36" y="48" width="10" height="2" fill="#333366" data-original="#000000" style=""/><path d="M56,51a3,3,0,1,0-3,3A3,3,0,0,0,56,51Zm-4,0a1,1,0,1,1,1,1A1,1,0,0,1,52,51Z" fill="#333366" data-original="#000000" style=""/><path d="M29,54a3,3,0,0,0,0-6v2a1,1,0,1,1-.867,1.5l-1.731,1A3.01,3.01,0,0,0,29,54Z" fill="#333366" data-original="#000000" style=""/><path d="M61,43a3.009,3.009,0,0,0-3-3,2.942,2.942,0,0,0-1.62.49L54.96,36.7l-.8-3.19A1.992,1.992,0,0,0,52.22,32H47V29a1,1,0,0,0-1-1H36a1,1,0,0,0-1,1v3H30v2H52.22l.5,2H30v2H53.31l2.25,6H37.86a3.983,3.983,0,0,0-7.72,0H30v2H57a1,1,0,0,1,1,1v8a1,1,0,0,1-1,1H26v2h2v2H26v2h2a2.006,2.006,0,0,0,2-2V58H52v2a2.006,2.006,0,0,0,2,2h4a2.006,2.006,0,0,0,2-2V47a2.942,2.942,0,0,0-.4-1.47A2.983,2.983,0,0,0,61,43ZM45,32H37V30h8ZM32.28,44a1.979,1.979,0,0,1,3.44,0ZM58,60H54V58h3a3,3,0,0,0,1-.18Zm0-16a.96.96,0,0,1-.33-.06l-.53-1.43A.973.973,0,0,1,58,42a1,1,0,0,1,0,2Z" fill="#333366" data-original="#000000" style=""/></g></g></svg>
