<svg id="Capa_2" data-name="Capa 2" xmlns="http://www.w3.org/2000/svg" viewBox="0 0 70 70"><defs><style>.cls-1{fill:#336;}</style></defs><path class="cls-1" d="M20.49,57.71a1.23,1.23,0,0,1-.71-1.26q0-22.31,0-44.6v-.19a1,1,0,0,1,.64-1,1,1,0,0,1,1.11.33l2,2.2c.63-.67,1.24-1.33,1.84-2,.74-.82,1.23-.82,2,0l1.75,1.89s.05,0,.11.08l1.89-2.05c.65-.71,1.16-.71,1.81,0l1.92,2.08,1.92-2.09c.65-.69,1.16-.69,1.81,0l1.91,2.08,1.93-2.1a1,1,0,0,1,1.78,0l1.93,2.1,1.94-2.11a1,1,0,0,1,1.2-.43c.46.16.63.48.63,1.15q0,22.32,0,44.64a1.29,1.29,0,0,1-.71,1.27h-.46a7,7,0,0,1-.74-.58c-.63-.65-1.24-1.33-1.87-2-.27.29-.5.56-.75.8-.59.61-1.19,1.21-1.79,1.8h-.55a8.54,8.54,0,0,1-.78-.69c-.59-.62-1.17-1.25-1.77-1.91-.61.67-1.19,1.32-1.8,1.94a7.29,7.29,0,0,1-.81.66h-.46a9.19,9.19,0,0,1-.76-.64c-.61-.64-1.2-1.3-1.81-2-.51.55-1,1.07-1.44,1.56s-.76.7-1.14,1h-.46a4.86,4.86,0,0,1-.71-.56c-.64-.66-1.25-1.34-1.89-2-.33.36-.62.69-.93,1-.54.54-1.09,1.06-1.63,1.59h-.55l-2.57-2.57c-.3.34-.61.7-.94,1-.51.52-1,1-1.56,1.53Zm1.32-43.56v40c.22-.23.37-.4.52-.57l.5-.55a.93.93,0,0,1,1.48,0c.49.5,1,1,1.44,1.55l.65.7,1.91-2.07a1.05,1.05,0,0,1,1.82,0L32,55.27c.68-.74,1.32-1.47,2-2.15a1.28,1.28,0,0,1,.81-.42,1.43,1.43,0,0,1,.86.44c.67.68,1.31,1.4,2,2.13l1.91-2.07c.66-.72,1.17-.71,1.84,0s1.25,1.35,1.89,2.06c.69-.75,1.35-1.48,2-2.19a1,1,0,0,1,1.61,0l1,1.05v-40c-.4.43-.72.81-1.08,1.17a.92.92,0,0,1-1.39,0c-.16-.16-.31-.34-.47-.51L43.32,13l-1.91,2.07c-.64.7-1.17.71-1.81,0S38.33,13.73,37.67,13l-1.88,2.06c-.68.73-1.2.72-1.88,0l-1.85-2-.12.07-1.78,1.93c-.7.76-1.21.75-1.91,0l-1.88-2c-.13.16-.23.3-.35.42-.55.61-1.1,1.23-1.67,1.83a1,1,0,0,1-1.56,0C22.48,14.9,22.18,14.55,21.81,14.15Z"/><path class="cls-1" d="M38.06,23.79a3.13,3.13,0,0,0-1.86-2.72.54.54,0,0,1-.37-.58c0-.75-.38-1.18-1-1.17a1,1,0,0,0-1,1.15.56.56,0,0,1-.39.62,3.15,3.15,0,0,0-1.76,3.5,3.18,3.18,0,0,0,3,2.57,2.74,2.74,0,0,1,.5.07,1.22,1.22,0,1,1-.87,2.27,1.27,1.27,0,0,1-.69-1.12,1,1,0,0,0-1.07-.95,1,1,0,0,0-.89,1.19,3.11,3.11,0,0,0,1.8,2.65.64.64,0,0,1,.43.69,1,1,0,1,0,2,0,.59.59,0,0,1,.41-.65A3.19,3.19,0,0,0,35,25.21a2.74,2.74,0,0,1-.5-.07,1.21,1.21,0,0,1-.88-1.38,1.22,1.22,0,0,1,1.22-1c.69,0,1.09.41,1.23,1.28a1,1,0,0,0,1,.93A1,1,0,0,0,38.06,23.79ZM34.9,42.52H26.81c-.88,0-1.33.32-1.35.95s.45,1,1.35,1H43.36a1,1,0,0,0,0-1.94,3.49,3.49,0,0,0-.46,0Zm0,6.09h8.06a4.13,4.13,0,0,0,.5,0,1,1,0,0,0,.84-1,1,1,0,0,0-.85-.93,3.53,3.53,0,0,0-.46,0H26.78a3.53,3.53,0,0,0-.46,0,.91.91,0,0,0-.83.74.86.86,0,0,0,.39,1,1.61,1.61,0,0,0,.78.19C29.39,48.62,32.12,48.61,34.85,48.61Zm0-10.13H30.61a1,1,0,0,0-1,1,.94.94,0,0,0,1,1h8.55A.94.94,0,0,0,40,40a1,1,0,0,0-.9-1.47Z"/><path class="cls-1" d="M38.06,23.79a1,1,0,0,1-.92,1.15,1,1,0,0,1-1-.93c-.14-.87-.54-1.28-1.23-1.28a1.22,1.22,0,0,0-1.22,1,1.21,1.21,0,0,0,.88,1.38,2.74,2.74,0,0,0,.5.07,3.19,3.19,0,0,1,1.23,6.07.59.59,0,0,0-.41.65,1,1,0,1,1-2,0,.64.64,0,0,0-.43-.69,3.11,3.11,0,0,1-1.8-2.65,1,1,0,0,1,.89-1.19,1,1,0,0,1,1.07.95,1.27,1.27,0,0,0,.69,1.12,1.15,1.15,0,0,0,1.3-.1,1.23,1.23,0,0,0-.43-2.17,2.74,2.74,0,0,0-.5-.07,3.18,3.18,0,0,1-3-2.57,3.15,3.15,0,0,1,1.76-3.5.56.56,0,0,0,.39-.62,1,1,0,0,1,1-1.15c.62,0,1,.42,1,1.17a.54.54,0,0,0,.37.58A3.13,3.13,0,0,1,38.06,23.79Z"/><path class="cls-1" d="M34.9,42.52h8a3.49,3.49,0,0,1,.46,0,1,1,0,0,1,0,1.94H26.81c-.9,0-1.36-.34-1.35-1s.47-.95,1.35-.95Z"/><path class="cls-1" d="M34.85,48.61c-2.73,0-5.46,0-8.19,0a1.61,1.61,0,0,1-.78-.19.86.86,0,0,1-.39-1,.91.91,0,0,1,.83-.74,3.53,3.53,0,0,1,.46,0H42.94a3.53,3.53,0,0,1,.46,0,1,1,0,0,1,.85.93,1,1,0,0,1-.84,1,4.13,4.13,0,0,1-.5,0Z"/><path class="cls-1" d="M34.88,38.48h4.23A1,1,0,0,1,40,40a.94.94,0,0,1-.88.49H30.58a.94.94,0,0,1-1-1,1,1,0,0,1,1-1Z"/></svg>