<?xml version="1.0" encoding="UTF-8" standalone="no"?>
<svg
   xmlns:dc="http://purl.org/dc/elements/1.1/"
   xmlns:cc="http://creativecommons.org/ns#"
   xmlns:rdf="http://www.w3.org/1999/02/22-rdf-syntax-ns#"
   xmlns:svg="http://www.w3.org/2000/svg"
   xmlns="http://www.w3.org/2000/svg"
   xmlns:sodipodi="http://sodipodi.sourceforge.net/DTD/sodipodi-0.dtd"
   xmlns:inkscape="http://www.inkscape.org/namespaces/inkscape"
   sodipodi:docname="2 - Hotel Building.svg"
   inkscape:version="1.0 (4035a4fb49, 2020-05-01)"
   id="svg831"
   version="1.1"
   viewBox="0 0 22.577778 22.577778"
   height="64pt"
   width="64pt"
   inkscape:export-filename="C:\Users\RainBoyz\Desktop\Oktober 2\Expand [Done!]\2 - Hotel Building.png"
   inkscape:export-xdpi="576"
   inkscape:export-ydpi="576">
  <defs
     id="defs825">
    <pattern
       y="0"
       x="0"
       height="6"
       width="6"
       patternUnits="userSpaceOnUse"
       id="EMFhbasepattern" />
    <pattern
       y="0"
       x="0"
       height="6"
       width="6"
       patternUnits="userSpaceOnUse"
       id="EMFhbasepattern-9" />
    <pattern
       y="0"
       x="0"
       height="6"
       width="6"
       patternUnits="userSpaceOnUse"
       id="EMFhbasepattern-0" />
    <pattern
       y="0"
       x="0"
       height="6"
       width="6"
       patternUnits="userSpaceOnUse"
       id="EMFhbasepattern-7" />
    <pattern
       y="0"
       x="0"
       height="6"
       width="6"
       patternUnits="userSpaceOnUse"
       id="EMFhbasepattern-2" />
    <pattern
       y="0"
       x="0"
       height="6"
       width="6"
       patternUnits="userSpaceOnUse"
       id="EMFhbasepattern-98" />
    <pattern
       y="0"
       x="0"
       height="6"
       width="6"
       patternUnits="userSpaceOnUse"
       id="EMFhbasepattern-6" />
    <pattern
       y="0"
       x="0"
       height="6"
       width="6"
       patternUnits="userSpaceOnUse"
       id="EMFhbasepattern-01" />
    <pattern
       y="0"
       x="0"
       height="6"
       width="6"
       patternUnits="userSpaceOnUse"
       id="EMFhbasepattern-07" />
    <pattern
       y="0"
       x="0"
       height="6"
       width="6"
       patternUnits="userSpaceOnUse"
       id="EMFhbasepattern-8" />
    <pattern
       y="0"
       x="0"
       height="6"
       width="6"
       patternUnits="userSpaceOnUse"
       id="EMFhbasepattern-4" />
    <pattern
       y="0"
       x="0"
       height="6"
       width="6"
       patternUnits="userSpaceOnUse"
       id="EMFhbasepattern-40" />
    <pattern
       y="0"
       x="0"
       height="6"
       width="6"
       patternUnits="userSpaceOnUse"
       id="EMFhbasepattern-08" />
    <pattern
       y="0"
       x="0"
       height="6"
       width="6"
       patternUnits="userSpaceOnUse"
       id="EMFhbasepattern-04" />
    <pattern
       y="0"
       x="0"
       height="6"
       width="6"
       patternUnits="userSpaceOnUse"
       id="EMFhbasepattern-014" />
    <pattern
       y="0"
       x="0"
       height="6"
       width="6"
       patternUnits="userSpaceOnUse"
       id="EMFhbasepattern-27" />
    <pattern
       y="0"
       x="0"
       height="6"
       width="6"
       patternUnits="userSpaceOnUse"
       id="EMFhbasepattern-09" />
    <pattern
       y="0"
       x="0"
       height="6"
       width="6"
       patternUnits="userSpaceOnUse"
       id="EMFhbasepattern-5" />
    <pattern
       y="0"
       x="0"
       height="6"
       width="6"
       patternUnits="userSpaceOnUse"
       id="EMFhbasepattern-018" />
  </defs>
  <sodipodi:namedview
     inkscape:document-rotation="0"
     inkscape:snap-global="true"
     inkscape:snap-nodes="false"
     inkscape:bbox-nodes="true"
     inkscape:snap-bbox="true"
     showguides="true"
     inkscape:snap-midpoints="true"
     inkscape:snap-smooth-nodes="true"
     inkscape:snap-intersection-paths="true"
     inkscape:object-paths="true"
     inkscape:showpageshadow="false"
     inkscape:pagecheckerboard="true"
     inkscape:window-maximized="1"
     inkscape:window-y="-8"
     inkscape:window-x="-8"
     inkscape:window-height="715"
     inkscape:window-width="1366"
     units="pt"
     showgrid="false"
     inkscape:current-layer="layer1"
     inkscape:document-units="pt"
     inkscape:cy="42.666667"
     inkscape:cx="-46.521273"
     inkscape:zoom="2.175182"
     inkscape:pageshadow="2"
     inkscape:pageopacity="0.0"
     borderopacity="1.0"
     bordercolor="#666666"
     pagecolor="#ffffff"
     id="base">
    <inkscape:grid
       id="grid1378"
       type="xygrid" />
    <sodipodi:guide
       inkscape:locked="false"
       id="guide1380"
       orientation="78.000048,0"
       position="0.97013831,21.607643" />
    <sodipodi:guide
       inkscape:locked="false"
       id="guide1382"
       orientation="0,78.000005"
       position="0.97013831,0.97013129" />
    <sodipodi:guide
       inkscape:locked="false"
       id="guide1384"
       orientation="-78.000048,0"
       position="21.607639,0.97013129" />
    <sodipodi:guide
       inkscape:locked="false"
       id="guide1386"
       orientation="0,-78.000005"
       position="21.607639,21.607643" />
  </sodipodi:namedview>
  <metadata
     id="metadata828">
    <rdf:RDF>
      <cc:Work
         rdf:about="">
        <dc:format>image/svg+xml</dc:format>
        <dc:type
           rdf:resource="http://purl.org/dc/dcmitype/StillImage" />
        <dc:title />
      </cc:Work>
    </rdf:RDF>
  </metadata>
  <g
     transform="translate(0,-274.42223)"
     id="layer1"
     inkscape:groupmode="layer"
     inkscape:label="Icon">
    <path
       id="path487"
       style="color:#333366;font-style:normal;font-variant:normal;font-weight:normal;font-stretch:normal;font-size:medium;line-height:normal;font-family:sans-serif;font-variant-ligatures:normal;font-variant-position:normal;font-variant-caps:normal;font-variant-numeric:normal;font-variant-alternates:normal;font-variant-east-asian:normal;font-feature-settings:normal;font-variation-settings:normal;text-indent:0;text-align:start;text-decoration:none;text-decoration-line:none;text-decoration-style:solid;text-decoration-color:#333366;letter-spacing:normal;word-spacing:normal;text-transform:none;writing-mode:lr-tb;direction:ltr;text-orientation:mixed;dominant-baseline:auto;baseline-shift:baseline;text-anchor:start;white-space:normal;shape-padding:0;shape-margin:0;inline-size:0;clip-rule:nonzero;display:inline;overflow:visible;visibility:visible;opacity:1;isolation:auto;mix-blend-mode:normal;color-interpolation:sRGB;color-interpolation-filters:linearRGB;solid-color:#333366;solid-opacity:1;vector-effect:none;fill:#333366;fill-opacity:1;fill-rule:nonzero;stroke:none;stroke-width:0.665705;stroke-linecap:round;stroke-linejoin:round;stroke-miterlimit:4;stroke-dasharray:none;stroke-dashoffset:0;stroke-opacity:1;color-rendering:auto;image-rendering:auto;shape-rendering:auto;text-rendering:auto;enable-background:accumulate;stop-color:#333366;stop-opacity:1"
       d="m 12.609602,275.39251 a 0.3328852,0.3328852 0 0 0 -0.287345,0.18658 l -0.626699,1.26575 -1.39837,0.20349 a 0.3328852,0.3328852 0 0 0 -0.183978,0.56753 l 1.012209,0.98815 -0.237938,1.39318 a 0.3328852,0.3328852 0 0 0 0.481076,0.35105 l 1.250798,-0.65855 1.253395,0.65855 a 0.3328852,0.3328852 0 0 0 0.481076,-0.35105 l -0.237938,-1.39318 1.012211,-0.98815 a 0.3328852,0.3328852 0 0 0 -0.18398,-0.56753 l -1.400969,-0.20349 -0.624099,-1.26575 a 0.3328852,0.3328852 0 0 0 -0.309449,-0.18658 z m 0.01233,1.08567 0.403064,0.81848 a 0.3328852,0.3328852 0 0 0 0.250289,0.18204 l 0.904292,0.13262 -0.653353,0.63644 a 0.3328852,0.3328852 0 0 0 -0.09621,0.29449 l 0.154725,0.90169 -0.810678,-0.42516 a 0.3328852,0.3328852 0 0 0 -0.309449,0 l -0.808076,0.42516 0.154724,-0.90169 a 0.3328852,0.3328852 0 0 0 -0.09621,-0.29449 l -0.653352,-0.63644 0.904292,-0.13262 a 0.3328852,0.3328852 0 0 0 0.250289,-0.18204 z m -4.8972203,0.2802 a 0.33288585,0.33288585 0 0 0 -0.2873441,0.18723 l -0.4056674,0.81783 -0.9016917,0.13001 A 0.33288585,0.33288585 0 0 0 5.9460299,278.461 l 0.6533526,0.63645 -0.1547244,0.89974 a 0.33288585,0.33288585 0 0 0 0.4843269,0.35105 l 0.8054767,-0.42516 0.8087274,0.42516 a 0.33288585,0.33288585 0 0 0 0.4817254,-0.35105 L 8.87019,279.09745 9.5235426,278.461 A 0.33288585,0.33288585 0 0 0 9.3389137,277.89345 L 8.437222,277.76344 8.0341584,276.94561 a 0.33288585,0.33288585 0 0 0 -0.3094477,-0.18723 z m 9.7697363,0 a 0.33288585,0.33288585 0 0 0 -0.287996,0.18723 l -0.402413,0.81783 -0.901692,0.13001 a 0.33288585,0.33288585 0 0 0 -0.187229,0.56755 l 0.654003,0.63645 -0.154725,0.89974 a 0.33288585,0.33288585 0 0 0 0.483677,0.35105 l 0.808726,-0.42516 0.805477,0.42516 a 0.33288585,0.33288585 0 0 0 0.484327,-0.35105 l -0.154725,-0.89974 0.653353,-0.63645 a 0.33288585,0.33288585 0 0 0 -0.186579,-0.56755 l -0.901692,-0.13001 -0.403063,-0.81783 a 0.33288585,0.33288585 0 0 0 -0.309449,-0.18723 z m 0.01233,1.08372 0.181379,0.37121 a 0.33288585,0.33288585 0 0 0 0.250939,0.18138 l 0.407614,0.0591 -0.294496,0.28995 a 0.33288585,0.33288585 0 0 0 -0.09621,0.29514 l 0.06892,0.40501 -0.363407,-0.19177 a 0.33288585,0.33288585 0 0 0 -0.312049,0 l -0.364058,0.19177 0.06892,-0.40501 a 0.33288585,0.33288585 0 0 0 -0.09557,-0.29514 l -0.295147,-0.28995 0.408265,-0.0591 a 0.33288585,0.33288585 0 0 0 0.25029,-0.18138 z m -9.772336,0.003 0.1820287,0.36861 a 0.33288585,0.33288585 0 0 0 0.2509394,0.18138 l 0.4102142,0.0591 -0.2977468,0.28995 a 0.33288585,0.33288585 0 0 0 -0.09556,0.29514 l 0.068915,0.40501 -0.3634069,-0.19177 a 0.33288585,0.33288585 0 0 0 -0.3100993,0 l -0.3634068,0.19177 0.068914,-0.40501 a 0.33288585,0.33288585 0 0 0 -0.096214,-0.29514 l -0.2970963,-0.28995 0.4102154,-0.0591 a 0.33288585,0.33288585 0 0 0 0.2509382,-0.18138 z m 0.8919408,3.02233 c -0.5475477,0 -0.9998579,0.45231 -0.9998579,0.99985 v 3.84536 H 5.9629327 c -0.5475225,0 -0.9972525,0.44972 -0.997255,0.99725 v 8.32262 c 0,0.11662 0.023663,0.22716 0.061102,0.33155 H 2.9679043 v -1.36586 c 0.7568025,-0.15573 1.3320582,-0.82836 1.332062,-1.62916 6.3e-6,-0.91522 -0.7510055,-1.66361 -1.6662122,-1.66361 -0.9152079,0 -1.6636193,0.74839 -1.66361301,1.66361 3.78e-6,0.80185 0.57444291,1.47522 1.33205811,1.62994 v 1.36522 H 1.3023438 a 0.33285256,0.33285256 0 0 0 -0.33220271,0.33415 0.33285256,0.33285256 0 0 0 0.33220271,0.33154 H 21.273484 a 0.33285256,0.33285256 0 0 0 0.334152,-0.33154 0.33285256,0.33285256 0 0 0 -0.334152,-0.33415 h -1.061617 c 0.03746,-0.10442 0.06106,-0.2149 0.06111,-0.33155 l 0.0026,-5.65914 c 1.84e-4,-0.54753 -0.44972,-0.99987 -0.997257,-0.99987 h -1.666212 v -6.50622 c 0,-0.54755 -0.44971,-0.99986 -0.997256,-0.99986 z m 0,0.6657 h 7.9884552 c 0.187769,0 0.331552,0.14638 0.331552,0.33415 v 11.16746 0.66571 1.66361 H 14.147699 V 293.192 c 0,-0.54754 -0.452308,-1.0005 -0.999855,-1.0005 H 12.0908 c -0.54755,0 -0.997258,0.45296 -0.997258,1.0005 v 2.172 H 8.2922497 v -13.49678 c 0,-0.18778 0.146385,-0.33415 0.3341527,-0.33415 z m 0.9979067,0.6657 c -0.3637352,0 -0.6657089,0.30198 -0.6657039,0.66571 v 0.66635 c -5e-6,0.36372 0.3019851,0.66571 0.6657039,0.66571 h 0.6657045 c 0.363719,0 0.665709,-0.30199 0.665705,-0.66571 v -0.66635 c 4e-6,-0.36373 -0.301971,-0.66571 -0.665705,-0.66571 z m 2.6634695,0 c -0.363735,0 -0.66571,0.30198 -0.665705,0.66571 v 0.66635 c -5e-6,0.36372 0.301986,0.66571 0.665705,0.66571 h 0.665704 c 0.36372,0 0.665708,-0.30199 0.665703,-0.66571 v -0.66635 c 5e-6,-0.36373 -0.301968,-0.66571 -0.665703,-0.66571 z m 2.663467,0 c -0.363735,0 -0.665709,0.30198 -0.665705,0.66571 v 0.66635 c -4e-6,0.36372 0.301986,0.66571 0.665705,0.66571 h 0.665705 c 0.363719,0 0.663759,-0.30199 0.663754,-0.66571 v -0.66635 c 5e-6,-0.36373 -0.30002,-0.66571 -0.663754,-0.66571 z m -5.3269365,0.66571 h 0.6657045 v 0.66635 H 9.6243091 Z m 2.6634695,0 h 0.665704 v 0.66635 H 12.28778 Z m 2.663467,0 h 0.665705 v 0.66635 h -0.665705 z m -5.3269365,1.99777 c -0.3637352,0 -0.6657089,0.30196 -0.6657039,0.66569 v 0.66637 c -5e-6,0.36373 0.3019851,0.66569 0.6657039,0.66569 h 0.6657045 c 0.363719,0 0.665709,-0.30196 0.665705,-0.66569 V 285.528 c 4e-6,-0.36373 -0.301971,-0.66569 -0.665705,-0.66569 z m 2.6634695,0 c -0.363735,0 -0.66571,0.30196 -0.665705,0.66569 v 0.66637 c -5e-6,0.36373 0.301986,0.66569 0.665705,0.66569 h 0.665704 c 0.36372,0 0.665708,-0.30196 0.665703,-0.66569 V 285.528 c 5e-6,-0.36373 -0.301968,-0.66569 -0.665703,-0.66569 z m 2.663467,0 c -0.363735,0 -0.665709,0.30196 -0.665705,0.66569 v 0.66637 c -4e-6,0.36373 0.301986,0.66569 0.665705,0.66569 h 0.665705 c 0.363719,0 0.663759,-0.30196 0.663754,-0.66569 V 285.528 c 5e-6,-0.36373 -0.30002,-0.66569 -0.663754,-0.66569 z M 9.6242895,285.528 h 0.6657045 v 0.66637 H 9.6243091 Z m 2.6634695,0 h 0.665704 v 0.66637 H 12.28778 Z m 2.663467,0 h 0.665705 v 0.66637 h -0.665705 z m -8.9883117,0.85034 h 1.6636106 v 0.66376 H 6.9608407 c -0.3637365,0 -0.6657102,0.30196 -0.6657052,0.66571 v 0.6657 c -5e-6,0.36373 0.3019851,0.6657 0.6657052,0.6657 h 0.6650535 v 0.66635 H 6.9608407 c -0.3637365,0 -0.6657102,0.30198 -0.6657052,0.66571 v 0.66571 c -5e-6,0.36372 0.3019851,0.6657 0.6657052,0.6657 h 0.6644031 v 0.66636 H 6.9608407 c -0.3637365,0 -0.6657102,0.30198 -0.6657052,0.6657 v 0.66571 c -5e-6,0.36373 0.3019851,0.66571 0.6657052,0.66571 h 0.6637539 l -6.655e-4,0.9979 H 5.9629176 c -0.1877564,0 -0.3315511,-0.14379 -0.3315511,-0.33155 v -8.32262 c 0,-0.18776 0.1437947,-0.33155 0.3315511,-0.33155 z m 3.6613752,1.14743 c -0.3637352,0 -0.6657089,0.30003 -0.6657039,0.66376 v 0.6657 c -5e-6,0.36372 0.3019851,0.66571 0.6657039,0.66571 h 0.6657045 c 0.363719,0 0.665709,-0.30199 0.665705,-0.66571 v -0.6657 c 4e-6,-0.36373 -0.301971,-0.66376 -0.665705,-0.66376 z m 2.6634695,0 c -0.363735,0 -0.66571,0.30003 -0.665705,0.66376 v 0.6657 c -5e-6,0.36372 0.301986,0.66571 0.665705,0.66571 h 0.665704 c 0.36372,0 0.665708,-0.30199 0.665703,-0.66571 v -0.6657 c 5e-6,-0.36373 -0.301968,-0.66376 -0.665703,-0.66376 z m 2.663467,0 c -0.363735,0 -0.665709,0.30003 -0.665705,0.66376 v 0.6657 c -4e-6,0.36372 0.301986,0.66571 0.665705,0.66571 h 0.665705 c 0.363719,0 0.663759,-0.30199 0.663754,-0.66571 v -0.6657 c 5e-6,-0.36373 -0.30002,-0.66376 -0.663754,-0.66376 z m -7.990405,0.18204 h 0.6650535 v 0.6657 H 6.9608407 Z m 2.6634685,0.48172 h 0.6657045 v 0.6657 H 9.6243091 Z m 2.6634695,0 h 0.665704 v 0.6657 H 12.28778 Z m 2.663467,0 h 0.665705 v 0.6657 h -0.665705 z m 2.660869,0.84968 h 1.666211 c 0.187672,0 0.331617,0.14649 0.331553,0.33416 l -0.0026,5.65914 c -6.7e-5,0.18785 -0.143717,0.33155 -0.331553,0.33155 h -1.663612 v -0.9979 H 18.2778 c 0.363718,0 0.666356,-0.30199 0.666354,-0.66571 v -0.66571 c 2e-6,-0.36372 -0.302619,-0.6657 -0.666354,-0.6657 h -0.665706 v -0.66636 H 18.2778 c 0.363718,0 0.666356,-0.30198 0.666354,-0.6657 v -0.66571 c 2e-6,-0.36373 -0.302619,-0.66571 -0.666354,-0.66571 h -0.665706 z m -7.9878055,1.14744 c -0.3637352,0 -0.6657089,0.30261 -0.6657039,0.66635 v 0.66571 c -5e-6,0.36373 0.3019851,0.66569 0.6657039,0.66569 h 0.6657045 c 0.363719,0 0.665709,-0.30196 0.665705,-0.66569 V 290.853 c 4e-6,-0.36374 -0.301971,-0.66635 -0.665705,-0.66635 z m 5.3269365,0 c -0.363735,0 -0.665709,0.30261 -0.665705,0.66635 v 0.66571 c -4e-6,0.36373 0.301986,0.66569 0.665705,0.66569 h 0.665705 c 0.363719,0 0.663759,-0.30196 0.663754,-0.66569 V 290.853 c 5e-6,-0.36374 -0.30002,-0.66635 -0.663754,-0.66635 z m -7.990405,0.18462 h 0.6644258 v 0.66571 H 6.9608407 Z m 10.651274,0 h 0.665704 v 0.66571 H 17.612095 Z M 9.6242895,290.853 h 0.6657045 v 0.66571 H 9.6243091 Z m 2.3293165,0 a 0.33285256,0.33285256 0 0 0 -0.331552,0.33415 0.33285256,0.33285256 0 0 0 0.331552,0.33156 h 1.331409 a 0.33285256,0.33285256 0 0 0 0.334151,-0.33156 0.33285256,0.33285256 0 0 0 -0.334151,-0.33415 z m 2.99762,0 h 0.665705 v 0.66571 h -0.665705 z m -12.3174853,0.51813 c 0.5554305,0 0.9998617,0.44247 0.9998554,0.99791 0,0.55541 -0.4444274,0.99725 -0.9998554,0.99725 -0.5554279,0 -0.997255,-0.44184 -0.9972588,-0.99725 -3.7e-6,-0.55544 0.4418246,-0.99791 0.9972588,-0.99791 z m 9.4570363,1.48678 h 1.057067 c 0.187769,0 0.334151,0.14638 0.334151,0.33416 v 2.17199 H 11.759247 V 293.192 c 0,-0.18777 0.143785,-0.33415 0.331553,-0.33415 z m -5.129956,0.17683 h 0.663754 v 0.66571 H 6.9608407 Z m 10.651274,0 h 0.665704 v 0.66571 h -0.665704 z" />
  </g>
</svg>
